<?xml version="1.0" encoding="UTF-8"?>
<svg id="Layer_2" data-name="Layer 2" xmlns="http://www.w3.org/2000/svg" viewBox="0 0 677.84 710.79">
  <defs>
    <style>
      .cls-1, .cls-2 {
        fill: #3581b8;
      }

      .cls-2 {
        stroke: #252525;
        stroke-miterlimit: 10;
        stroke-width: 61px;
      }
    </style>
  </defs>
  <g id="Layer_1-2" data-name="Layer 1">
    <g>
      <path class="cls-2" d="M67.52,275.3c24.67-47.34,60.19-84.12,106.54-110.31,46.34-26.19,102.25-39.29,167.74-39.29,19.14,0,37.02,1.39,53.65,4.16,16.62,2.77,31.98,6.42,46.09,10.96l-14.36,126.18c-22.67-9.56-47.35-14.36-74.05-14.36-55.42,0-97.85,15.62-127.31,46.85-29.47,31.24-44.2,73.55-44.2,126.94,0,41.31,11.96,72.66,35.89,94.07,23.92,21.42,54.78,32.11,92.56,32.11,14.1,0,26.69-.76,37.78-2.27,11.07-1.51,22.92-4.27,35.51-8.31l-25.69,129.2c-12.6,3.52-25.69,5.92-39.29,7.18-13.6,1.25-28.46,1.89-44.58,1.89-48.36,0-90.8-9.44-127.31-28.33-36.53-18.89-64.98-46.21-85.38-81.98-20.4-35.76-30.6-78.32-30.6-127.69,0-63.96,12.34-119.63,37.02-166.98Z"/>
      <path class="cls-2" d="M468.91,185.14c-8.18-15.23-12.27-33.54-12.27-54.94s4.4-40.6,13.22-55.32c8.81-14.73,20.64-25.8,35.5-33.23,14.85-7.42,31.09-11.14,48.71-11.14s33.8,4.03,47.77,12.08c13.97,8.06,25.05,19.64,33.23,34.74,8.18,15.11,12.27,33.36,12.27,54.76s-4.41,40.28-13.22,55.13c-8.82,14.86-20.58,26.06-35.31,33.61-14.73,7.55-31.03,11.33-48.9,11.33s-33.49-4.03-47.58-12.08c-14.1-8.05-25.24-19.7-33.42-34.93Zm140.29-50.04c0-24.67-5.61-42.8-16.8-54.38-11.21-11.58-24.99-17.37-41.35-17.37s-29.52,5.1-40.22,15.29c-10.7,10.2-16.05,26.38-16.05,48.53,0,24.68,5.53,42.86,16.62,54.57,11.08,11.71,24.92,17.56,41.54,17.56s29.83-5.16,40.41-15.48c10.57-10.32,15.86-26.56,15.86-48.71Z"/>
      <g>
        <path class="cls-1" d="M67.52,275.3c24.67-47.34,60.19-84.12,106.54-110.31,46.34-26.19,102.25-39.29,167.74-39.29,19.14,0,37.02,1.39,53.65,4.16,16.62,2.77,31.98,6.42,46.09,10.96l-14.36,126.18c-22.67-9.56-47.35-14.36-74.05-14.36-55.42,0-97.85,15.62-127.31,46.85-29.47,31.24-44.2,73.55-44.2,126.94,0,41.31,11.96,72.66,35.89,94.07,23.92,21.42,54.78,32.11,92.56,32.11,14.1,0,26.69-.76,37.78-2.27,11.07-1.51,22.92-4.27,35.51-8.31l-25.69,129.2c-12.6,3.52-25.69,5.92-39.29,7.18-13.6,1.25-28.46,1.89-44.58,1.89-48.36,0-90.8-9.44-127.31-28.33-36.53-18.89-64.98-46.21-85.38-81.98-20.4-35.76-30.6-78.32-30.6-127.69,0-63.96,12.34-119.63,37.02-166.98Z"/>
        <path class="cls-1" d="M468.91,185.14c-8.18-15.23-12.27-33.54-12.27-54.94s4.4-40.6,13.22-55.32c8.81-14.73,20.64-25.8,35.5-33.23,14.85-7.42,31.09-11.14,48.71-11.14s33.8,4.03,47.77,12.08c13.97,8.06,25.05,19.64,33.23,34.74,8.18,15.11,12.27,33.36,12.27,54.76s-4.41,40.28-13.22,55.13c-8.82,14.86-20.58,26.06-35.31,33.61-14.73,7.55-31.03,11.33-48.9,11.33s-33.49-4.03-47.58-12.08c-14.1-8.05-25.24-19.7-33.42-34.93Zm140.29-50.04c0-24.67-5.61-42.8-16.8-54.38-11.21-11.58-24.99-17.37-41.35-17.37s-29.52,5.1-40.22,15.29c-10.7,10.2-16.05,26.38-16.05,48.53,0,24.68,5.53,42.86,16.62,54.57,11.08,11.71,24.92,17.56,41.54,17.56s29.83-5.16,40.41-15.48c10.57-10.32,15.86-26.56,15.86-48.71Z"/>
      </g>
    </g>
  </g>
</svg>